<?xml version="1.0" encoding="UTF-8" standalone="no"?>
<!-- Generator: Adobe Illustrator 16.0.0, SVG Export Plug-In . SVG Version: 6.00 Build 0)  -->

<svg
   xmlns:dc="http://purl.org/dc/elements/1.1/"
   xmlns:cc="http://creativecommons.org/ns#"
   xmlns:rdf="http://www.w3.org/1999/02/22-rdf-syntax-ns#"
   xmlns:svg="http://www.w3.org/2000/svg"
   xmlns="http://www.w3.org/2000/svg"
   xmlns:sodipodi="http://sodipodi.sourceforge.net/DTD/sodipodi-0.dtd"
   xmlns:inkscape="http://www.inkscape.org/namespaces/inkscape"
   version="1.1"
   id="Capa_1"
   x="0px"
   y="0px"
   width="32"
   height="32"
   viewBox="0 0 32 32"
   xml:space="preserve"
   sodipodi:docname="connect.svg"
   inkscape:version="0.92.1 r15371"><metadata
     id="metadata51"><rdf:RDF><cc:Work
         rdf:about=""><dc:format>image/svg+xml</dc:format><dc:type
           rdf:resource="http://purl.org/dc/dcmitype/StillImage" /><dc:title></dc:title></cc:Work></rdf:RDF></metadata><defs
     id="defs49" /><sodipodi:namedview
     pagecolor="#ffffff"
     bordercolor="#666666"
     borderopacity="1"
     objecttolerance="10"
     gridtolerance="10"
     guidetolerance="10"
     inkscape:pageopacity="0"
     inkscape:pageshadow="2"
     inkscape:window-width="2304"
     inkscape:window-height="1202"
     id="namedview47"
     showgrid="false"
     inkscape:snap-bbox="true"
     inkscape:bbox-paths="true"
     inkscape:bbox-nodes="true"
     inkscape:snap-bbox-edge-midpoints="true"
     inkscape:snap-bbox-midpoints="true"
     inkscape:object-paths="true"
     inkscape:snap-intersection-paths="true"
     inkscape:snap-midpoints="true"
     inkscape:snap-smooth-nodes="true"
     inkscape:zoom="8"
     inkscape:cx="5.4041656"
     inkscape:cy="26.660812"
     inkscape:window-x="-11"
     inkscape:window-y="-11"
     inkscape:window-maximized="1"
     inkscape:current-layer="Capa_1"
     showguides="true"
     inkscape:guide-bbox="true"
     inkscape:snap-page="true" /><g
     id="g16"
     transform="translate(0,-503.5)" /><g
     id="g18"
     transform="translate(0,-503.5)" /><g
     id="g20"
     transform="translate(0,-503.5)" /><g
     id="g22"
     transform="translate(0,-503.5)" /><g
     id="g24"
     transform="translate(0,-503.5)" /><g
     id="g26"
     transform="translate(0,-503.5)" /><g
     id="g28"
     transform="translate(0,-503.5)" /><g
     id="g30"
     transform="translate(0,-503.5)" /><g
     id="g32"
     transform="translate(0,-503.5)" /><g
     id="g34"
     transform="translate(0,-503.5)" /><g
     id="g36"
     transform="translate(0,-503.5)" /><g
     id="g38"
     transform="translate(0,-503.5)" /><g
     id="g40"
     transform="translate(0,-503.5)" /><g
     id="g42"
     transform="translate(0,-503.5)" /><g
     id="g44"
     transform="translate(0,-503.5)" /><g
     style="display:inline"
     id="g4642"
     transform="translate(1.874994,-1.8752617)"><path
       style="fill:#494949;fill-opacity:1;stroke-width:0.30483994"
       inkscape:connector-curvature="0"
       d="m 10.217872,13.968128 c -0.02957,0.02896 -2.6914313,2.690517 -2.7213056,2.720696 -2.0101145,2.011029 -2.1454635,5.182584 -0.4106194,7.35152 l -6.49817678,6.498482 c -0.2399091,0.240824 -0.2399091,0.632238 0,0.873671 0.2414332,0.241129 0.63376218,0.241129 0.87489058,0 l 6.4972623,-6.498482 c 2.1698509,1.733929 5.3410999,1.597971 7.3518249,-0.411229 0.02987,-0.03018 2.689602,-2.692956 2.718257,-2.72283 z"
       id="path2"
       sodipodi:nodetypes="cccccccccc" /><path
       sodipodi:nodetypes="ccccccc"
       style="display:inline;fill:#00bbd6;fill-opacity:1;stroke-width:0.30483994"
       inkscape:connector-curvature="0"
       d="m 10.218939,13.969347 c -0.02957,0.02896 -2.6914307,2.690517 -2.7213057,2.720696 -2.0101137,2.011029 -2.1454627,5.182584 -0.410619,7.35152 l 0.873976,0.873671 c 2.1698507,1.733929 5.3411007,1.597971 7.3518257,-0.411229 0.02987,-0.03018 2.689602,-2.692956 2.718257,-2.72283 z"
       id="path2-9" /></g><g
     style="display:inline"
     id="g4646"
     transform="translate(-1.9379051,1.9369902)"><path
       style="fill:#494949;fill-opacity:1;stroke-width:0.30483994"
       inkscape:connector-curvature="0"
       d="m 31.47457,0.5263444 c -0.240823,-0.2408235 -0.631628,-0.2408235 -0.872147,0 l -6.562194,6.5600217 c -2.168326,-1.734844 -5.340795,-1.5991902 -7.3503,0.4109243 -0.02987,0.029874 -2.690212,2.6923466 -2.719477,2.7225256 l 1.413848,1.413543 1.746123,-1.7464284 c 0.425556,-0.4249469 1.115104,-0.4249469 1.54188,0 0.424947,0.4255564 0.424947,1.1163234 0,1.5409654 l -1.747038,1.746733 1.900677,1.900068 1.746733,-1.746428 c 0.425557,-0.424947 1.113885,-0.424947 1.540661,0 0.425557,0.426166 0.425557,1.116019 0,1.542185 l -1.746428,1.746428 1.415982,1.415067 c 0.02987,-0.02896 2.690212,-2.690518 2.720086,-2.720697 2.011334,-2.009809 2.146683,-5.182583 0.410925,-7.3515195 l 6.560669,-6.559412 c 0.241739,-0.2414332 0.241739,-0.6328477 0,-0.8739761 z"
       id="path4"
       sodipodi:nodetypes="cccccccccccccccccccc" /><path
       sodipodi:nodetypes="ccccccc"
       style="fill:#00bbd6;fill-opacity:1;stroke-width:0.30483994"
       inkscape:connector-curvature="0"
       d="m 24.040229,7.0863662 c -2.168326,-1.734844 -5.340795,-1.5991902 -7.3503,0.4109243 -0.02987,0.029874 -2.690212,2.6923465 -2.719477,2.7225255 l 7.812438,7.812133 c 0.02987,-0.02896 2.690212,-2.690518 2.720086,-2.720697 2.011334,-2.009809 2.146683,-5.182583 0.410925,-7.3515194 z"
       id="path4-8" /></g><path
     style="display:inline;fill:none;stroke:#494949;stroke-width:1px;stroke-linecap:butt;stroke-linejoin:miter;stroke-opacity:1"
     d="m 12.11848,12.11848 7.78637,7.78637"
     id="path4648"
     inkscape:connector-curvature="0" /></svg>