<?xml version="1.0" encoding="UTF-8" standalone="no"?>
<!-- Created with Inkscape (http://www.inkscape.org/) -->

<svg
   xmlns:dc="http://purl.org/dc/elements/1.1/"
   xmlns:cc="http://creativecommons.org/ns#"
   xmlns:rdf="http://www.w3.org/1999/02/22-rdf-syntax-ns#"
   xmlns:svg="http://www.w3.org/2000/svg"
   xmlns="http://www.w3.org/2000/svg"
   xmlns:sodipodi="http://sodipodi.sourceforge.net/DTD/sodipodi-0.dtd"
   xmlns:inkscape="http://www.inkscape.org/namespaces/inkscape"
   width="32"
   height="32"
   id="svg2"
   version="1.1"
   inkscape:version="0.92.1 r15371"
   sodipodi:docname="edit_query.svg"
   inkscape:export-filename="C:\documents\deposit_1_1\_res\zoom_out.png"
   inkscape:export-xdpi="90"
   inkscape:export-ydpi="90">
  <defs
     id="defs4" />
  <sodipodi:namedview
     id="base"
     pagecolor="#ffffff"
     bordercolor="#666666"
     borderopacity="1.0"
     inkscape:pageopacity="0.0"
     inkscape:pageshadow="2"
     inkscape:zoom="11.2"
     inkscape:cx="35.560078"
     inkscape:cy="7.9916994"
     inkscape:document-units="px"
     inkscape:current-layer="layer1"
     showgrid="false"
     showguides="true"
     inkscape:guide-bbox="true"
     inkscape:window-width="1451"
     inkscape:window-height="1080"
     inkscape:window-x="350"
     inkscape:window-y="0"
     inkscape:window-maximized="0"
     inkscape:snap-global="true"
     inkscape:snap-bbox="true"
     inkscape:bbox-paths="true"
     inkscape:bbox-nodes="true"
     inkscape:snap-bbox-edge-midpoints="true"
     inkscape:snap-bbox-midpoints="true"
     inkscape:snap-page="true"
     inkscape:snap-center="true"
     inkscape:snap-object-midpoints="true" />
  <metadata
     id="metadata7">
    <rdf:RDF>
      <cc:Work
         rdf:about="">
        <dc:format>image/svg+xml</dc:format>
        <dc:type
           rdf:resource="http://purl.org/dc/dcmitype/StillImage" />
        <dc:title />
      </cc:Work>
    </rdf:RDF>
  </metadata>
  <g
     inkscape:label="Layer 1"
     inkscape:groupmode="layer"
     id="layer1"
     transform="translate(0,-1090.5196)"
     style="display:inline">
    <circle
       style="fill:none;stroke:#000000;stroke-width:1.8955127;stroke-opacity:1"
       id="path2985"
       cx="12.976974"
       cy="1103.5066"
       r="9.8182364" />
    <path
       style="fill:#000000;fill-opacity:1;stroke:none;stroke-width:1.06666672"
       d="m 26.236649,1120.2817 1.734095,0.017 1.818275,-1.7172 -0.01683,-1.7341 -6.111423,-6.1115 -1.818274,0.034 -1.178512,-1.2459 -1.447885,1.4816 1.010153,1.4142 -0.03368,1.8182 z"
       id="path3772"
       inkscape:connector-curvature="0" />
    <path
       inkscape:connector-curvature="0"
       d="m 12.941182,1102.5504 q 1.790822,0 3.347397,-0.3249 1.556574,-0.3249 2.455765,-0.9597 v 1.2846 q 0,0.5214 -0.778288,0.9671 -0.778288,0.4459 -2.115737,0.7066 -1.337447,0.2607 -2.909137,0.2607 -1.571686,0 -2.909134,-0.2607 -1.3374479,-0.2607 -2.1157345,-0.7066 -0.7782886,-0.4457 -0.7782886,-0.9671 v -1.2846 q 0.8991903,0.6348 2.4557647,0.9597 1.5565754,0.3249 3.3473924,0.3249 z m 0,5.8032 q 1.790822,0 3.347397,-0.3249 1.556574,-0.3249 2.455765,-0.9597 v 1.2846 q 0,0.5214 -0.778288,0.9672 -0.778288,0.4458 -2.115737,0.7065 -1.337447,0.2606 -2.909137,0.2606 -1.571686,0 -2.909134,-0.2606 -1.3374479,-0.2607 -2.1157345,-0.7065 -0.7782886,-0.4458 -0.7782886,-0.9672 v -1.2846 q 0.8991903,0.6348 2.4557647,0.9597 1.5565754,0.3249 3.3473924,0.3249 z m 0,-2.9016 q 1.790822,0 3.347397,-0.3249 1.556574,-0.325 2.455765,-0.9597 v 1.2846 q 0,0.5214 -0.778288,0.9671 -0.778288,0.4459 -2.115737,0.7066 -1.337447,0.2607 -2.909137,0.2607 -1.571686,0 -2.909134,-0.2607 -1.3374479,-0.2607 -2.1157345,-0.7066 -0.7782886,-0.4457 -0.7782886,-0.9671 v -1.2846 q 0.8991903,0.6347 2.4557647,0.9597 1.5565754,0.3249 3.3473924,0.3249 z m 0,-8.7047 q 1.57169,0 2.909137,0.2606 1.337449,0.2608 2.115737,0.7066 0.778288,0.4457 0.778288,0.9671 v 0.9672 q 0,0.5214 -0.778288,0.9673 -0.778288,0.4458 -2.115737,0.7065 -1.337447,0.2606 -2.909137,0.2606 -1.571686,0 -2.909134,-0.2606 -1.3374479,-0.2607 -2.1157345,-0.7065 -0.7782886,-0.4459 -0.7782886,-0.9673 v -0.9672 q 0,-0.5214 0.7782886,-0.9671 0.7782866,-0.4458 2.1157345,-0.7066 1.337448,-0.2606 2.909134,-0.2606 z"
       id="path2"
       style="display:inline;fill:#5a3b00;fill-opacity:1;stroke:none;stroke-width:0.00755619;stroke-opacity:1" />
    <g
       style="display:inline"
       transform="matrix(0.72123562,0,0,0.72123562,7.341713,303.58526)"
       id="g4520">
      <path
         sodipodi:nodetypes="cccccc"
         inkscape:connector-curvature="0"
         id="path3784"
         d="m 17.960447,1106.7101 0.903806,-3.0759 2.160516,0.7124 0.493747,2.1104 -2.947543,0.864 z"
         style="fill:#f9b406;fill-opacity:1;stroke:none;stroke-width:1.06666672" />
      <path
         inkscape:connector-curvature="0"
         id="path3782"
         d="m 18.864251,1103.6342 0.603502,0.8544 1.062986,0.2388 0.152847,0.9761 0.834929,0.7535 8.255544,-6.2926 -4.581552,-4.591 z"
         style="fill:#5a3b00;fill-opacity:1;stroke:none;stroke-width:1.06666672" />
      <g
         style="fill:#000000;fill-opacity:1"
         transform="matrix(0.01631113,4.3440858e-6,-4.3440858e-6,0.01631113,15.930487,1091.9521)"
         id="g6">
        <path
           style="fill:#000000;fill-opacity:1;stroke-width:1.06666672"
           inkscape:connector-curvature="0"
           id="path8"
           d="m 282.24,783.14667 -65.17333,-14.61334 448.42666,-448 74.45334,74.56 -448.32,447.89334 z m 506.88,-339.84 -446.29333,445.86666 -180.69334,53.01334 -37.44,-37.44 55.36,-188.58667 441.28,-440.85333 -53.44,-53.44 -447.78666,443.94666 c -6.18667,5.01334 -11.41334,11.2 -13.86667,19.41334 L 12.266667,1005.3333 c -4.1600003,13.9734 -0.213334,29.0134 10.026666,39.36 7.573334,7.5734 17.706667,11.6267 28.053334,11.6267 3.733333,0 7.466666,-0.5333 11.2,-1.6 L 381.65333,960.74667 C 389.22667,958.50667 395.2,953.81333 400,948.16 L 848.85333,503.25333 Z M 608.42667,177.28 889.6,458.45333 953.92,398.18667 672.74667,117.01333 Z M 1027.84,173.22667 893.12,38.506667 C 855.89333,1.28 795.94667,0.96 759.14667,37.76 L 717.76,79.573333 987.2,349.01333 1028.5867,307.2 c 36.8,-36.69333 36.48,-96.74667 -0.7467,-133.97333 z" />
      </g>
    </g>
  </g>
</svg>
