<?xml version="1.0" encoding="UTF-8" standalone="no"?>
<!-- Created with Inkscape (http://www.inkscape.org/) -->

<svg
   xmlns:dc="http://purl.org/dc/elements/1.1/"
   xmlns:cc="http://creativecommons.org/ns#"
   xmlns:rdf="http://www.w3.org/1999/02/22-rdf-syntax-ns#"
   xmlns:svg="http://www.w3.org/2000/svg"
   xmlns="http://www.w3.org/2000/svg"
   xmlns:sodipodi="http://sodipodi.sourceforge.net/DTD/sodipodi-0.dtd"
   xmlns:inkscape="http://www.inkscape.org/namespaces/inkscape"
   width="32"
   height="32"
   id="svg2"
   version="1.1"
   inkscape:version="0.92.1 r15371"
   sodipodi:docname="shapefile.svg"
   inkscape:export-filename="C:\documents\deposit_1_1\_res\dep_cube_256px.png"
   inkscape:export-xdpi="720"
   inkscape:export-ydpi="720">
  <defs
     id="defs4">
    <inkscape:perspective
       sodipodi:type="inkscape:persp3d"
       inkscape:vp_x="-173.42076 : 134.99922 : 1"
       inkscape:vp_y="0 : 1066.6667 : 0"
       inkscape:vp_z="204.11941 : 133.73499 : 1"
       inkscape:persp3d-origin="5.5877722 : 6.6606441 : 1"
       id="perspective3029" />
  </defs>
  <sodipodi:namedview
     id="base"
     pagecolor="#ffffff"
     bordercolor="#666666"
     borderopacity="1.0"
     inkscape:pageopacity="0.0"
     inkscape:pageshadow="2"
     inkscape:zoom="16"
     inkscape:cx="3.4754301"
     inkscape:cy="23.371735"
     inkscape:document-units="px"
     inkscape:current-layer="layer1"
     showgrid="false"
     showguides="true"
     inkscape:guide-bbox="true"
     inkscape:snap-bbox="true"
     inkscape:bbox-nodes="true"
     inkscape:bbox-paths="true"
     inkscape:snap-bbox-edge-midpoints="true"
     inkscape:snap-bbox-midpoints="true"
     inkscape:snap-global="false"
     inkscape:window-width="1593"
     inkscape:window-height="1191"
     inkscape:window-x="75"
     inkscape:window-y="0"
     inkscape:window-maximized="0"
     inkscape:object-paths="true"
     inkscape:snap-intersection-paths="true"
     inkscape:snap-smooth-nodes="true"
     inkscape:snap-midpoints="true"
     inkscape:object-nodes="true"
     inkscape:snap-center="false"
     inkscape:snap-object-midpoints="true">
    <sodipodi:guide
       orientation="0,1"
       position="69.866667,134.93333"
       id="guide3143"
       inkscape:locked="false" />
  </sodipodi:namedview>
  <metadata
     id="metadata7">
    <rdf:RDF>
      <cc:Work
         rdf:about="">
        <dc:format>image/svg+xml</dc:format>
        <dc:type
           rdf:resource="http://purl.org/dc/dcmitype/StillImage" />
        <dc:title></dc:title>
      </cc:Work>
    </rdf:RDF>
  </metadata>
  <g
     inkscape:label="Layer 1"
     inkscape:groupmode="layer"
     id="layer1"
     transform="translate(0,-1090.5196)">
    <g
       id="g4569"
       transform="translate(0,-0.8856)">
      <path
         inkscape:connector-curvature="0"
         id="path4517"
         d="m 7.578125,1118.879 0.015625,-16.9219 6.09375,-6.0625 10.921875,0.1563 -0.125,22.9062 z"
         style="fill:#ffffff;fill-opacity:1;stroke:none;stroke-width:1px;stroke-linecap:butt;stroke-linejoin:miter;stroke-opacity:1" />
      <rect
         y="1105.2284"
         x="10.735476"
         height="1.4475653"
         width="1.4406599"
         id="rect4519"
         style="opacity:1;fill:#c7b570;fill-opacity:1;stroke:none;stroke-width:0.37039369;stroke-miterlimit:4;stroke-dasharray:none;stroke-opacity:1" />
      <rect
         y="1105.1567"
         x="19.741573"
         height="1.4475653"
         width="1.4406599"
         id="rect4519-7"
         style="opacity:1;fill:#c7b570;fill-opacity:1;stroke:none;stroke-width:0.37039369;stroke-miterlimit:4;stroke-dasharray:none;stroke-opacity:1" />
      <rect
         y="1114.2386"
         x="19.741571"
         height="1.4475653"
         width="1.4406599"
         id="rect4519-6"
         style="opacity:1;fill:#c7b570;fill-opacity:1;stroke:none;stroke-width:0.37039369;stroke-miterlimit:4;stroke-dasharray:none;stroke-opacity:1" />
      <rect
         y="1114.2607"
         x="10.748057"
         height="1.4475653"
         width="1.4406599"
         id="rect4519-64"
         style="opacity:1;fill:#c7b570;fill-opacity:1;stroke:none;stroke-width:0.37039369;stroke-miterlimit:4;stroke-dasharray:none;stroke-opacity:1" />
      <g
         transform="translate(4,1095.4052)"
         id="g4499"
         style="fill:#000000">
        <path
           id="path4495"
           d="M 20.5,0 H 9.5 C 9.433,0 9.367,0.014 9.306,0.039 9.287,0.047 9.273,0.062 9.256,0.073 9.218,0.095 9.178,0.115 9.146,0.146 l -6,6 C 3.123,6.169 3.11,6.2 3.092,6.227 3.074,6.254 3.051,6.277 3.039,6.307 3.014,6.368 3,6.433 3,6.5 v 17 C 3,23.776 3.224,24 3.5,24 h 17 C 20.776,24 21,23.776 21,23.5 V 0.5 C 21,0.224 20.776,0 20.5,0 Z M 9,1.707 V 6 H 4.707 Z M 20,23 H 4 V 7 H 9.5 C 9.776,7 10,6.776 10,6.5 V 1 h 10 z"
           inkscape:connector-curvature="0" />
        <path
           id="path4497"
           d="M 15,10 H 9 V 9.5 C 9,9.224 8.776,9 8.5,9 h -2 C 6.224,9 6,9.224 6,9.5 v 2 C 6,11.776 6.224,12 6.5,12 H 7 v 6 H 6.5 C 6.224,18 6,18.224 6,18.5 v 2 C 6,20.776 6.224,21 6.5,21 h 2 C 8.776,21 9,20.776 9,20.5 V 20 h 6 v 0.5 c 0,0.276 0.224,0.5 0.5,0.5 h 2 c 0.276,0 0.5,-0.224 0.5,-0.5 v -2 C 18,18.224 17.776,18 17.5,18 H 17 v -6 h 0.5 c 0.276,0 0.5,-0.224 0.5,-0.5 v -2 C 18,9.224 17.776,9 17.5,9 h -2 C 15.224,9 15,9.224 15,9.5 Z m -8,0 h 1 v 1 H 7 Z M 8,20 H 7 v -1 h 1 z m 9,0 h -1 v -1 h 1 z M 16,18 H 15.5 C 15.224,18 15,18.224 15,18.5 V 19 H 9 V 18.5 C 9,18.224 8.776,18 8.5,18 H 8 V 12 H 8.5 C 8.776,12 9,11.776 9,11.5 V 11 h 6 v 0.5 c 0,0.276 0.224,0.5 0.5,0.5 H 16 Z m 0,-8 h 1 v 1 h -1 z"
           inkscape:connector-curvature="0" />
      </g>
    </g>
  </g>
</svg>
