<?xml version="1.0" encoding="UTF-8" standalone="no"?>
<svg
   xmlns:sketch="http://www.bohemiancoding.com/sketch/ns"
   xmlns:dc="http://purl.org/dc/elements/1.1/"
   xmlns:cc="http://creativecommons.org/ns#"
   xmlns:rdf="http://www.w3.org/1999/02/22-rdf-syntax-ns#"
   xmlns:svg="http://www.w3.org/2000/svg"
   xmlns="http://www.w3.org/2000/svg"
   xmlns:sodipodi="http://sodipodi.sourceforge.net/DTD/sodipodi-0.dtd"
   xmlns:inkscape="http://www.inkscape.org/namespaces/inkscape"
   enable-background="new 0 0 32 32"
   height="32px"
   id="Layer_1"
   version="1.1"
   viewBox="0 0 32 32"
   width="32px"
   xml:space="preserve"
   sodipodi:docname="connect_file.svg"
   inkscape:version="0.92.1 r15371"><metadata
     id="metadata12"><rdf:RDF><cc:Work
         rdf:about=""><dc:format>image/svg+xml</dc:format><dc:type
           rdf:resource="http://purl.org/dc/dcmitype/StillImage" /><dc:title></dc:title></cc:Work></rdf:RDF></metadata><defs
     id="defs10" /><sodipodi:namedview
     pagecolor="#ffffff"
     bordercolor="#666666"
     borderopacity="1"
     objecttolerance="10"
     gridtolerance="10"
     guidetolerance="10"
     inkscape:pageopacity="0"
     inkscape:pageshadow="2"
     inkscape:window-width="1933"
     inkscape:window-height="1412"
     id="namedview8"
     showgrid="false"
     inkscape:zoom="10.429825"
     inkscape:cx="14.648452"
     inkscape:cy="31.557258"
     inkscape:window-x="458"
     inkscape:window-y="0"
     inkscape:window-maximized="0"
     inkscape:current-layer="Layer_1"
     inkscape:snap-bbox="true"
     inkscape:bbox-paths="true"
     inkscape:snap-bbox-midpoints="true"
     inkscape:snap-bbox-edge-midpoints="true"
     inkscape:bbox-nodes="true" /><g
     id="g4568"
     transform="matrix(0.05353199,0,0,0.05353199,3.012764,3.0127916)"
     style="fill:#c7b570;fill-opacity:1;stroke:none"><g
       id="g4512"
       style="fill:#c7b570;fill-opacity:1;stroke:none"><path
         id="path4510"
         d="M 483.493,225.607 416.74,409.397 H 50.346 l 68.942,-183.878 c 5.867,-15.604 24.316,-28.399 40.989,-28.399 h 303.26 c 16.671,-0.001 25.673,12.822 19.956,28.487 z M 29.407,378.897 90.919,214.886 c 10.244,-27.424 40.064,-48.092 69.357,-48.092 h 264.28 c 0,-16.765 -13.562,-30.327 -30.322,-30.327 H 181.956 L 151.629,75.816 H 30.324 C 13.562,75.817 0,89.379 0,106.142 v 242.606 c 0,16.433 13.089,29.617 29.407,30.149 z"
         inkscape:connector-curvature="0"
         style="fill:#c7b570;fill-opacity:1;stroke:none" /></g><g
       id="g4514"
       style="fill:#c7b570;fill-opacity:1;stroke:none" /><g
       id="g4516"
       style="fill:#c7b570;fill-opacity:1;stroke:none" /><g
       id="g4518"
       style="fill:#c7b570;fill-opacity:1;stroke:none" /><g
       id="g4520"
       style="fill:#c7b570;fill-opacity:1;stroke:none" /><g
       id="g4522"
       style="fill:#c7b570;fill-opacity:1;stroke:none" /><g
       id="g4524"
       style="fill:#c7b570;fill-opacity:1;stroke:none" /><g
       id="g4526"
       style="fill:#c7b570;fill-opacity:1;stroke:none" /><g
       id="g4528"
       style="fill:#c7b570;fill-opacity:1;stroke:none" /><g
       id="g4530"
       style="fill:#c7b570;fill-opacity:1;stroke:none" /><g
       id="g4532"
       style="fill:#c7b570;fill-opacity:1;stroke:none" /><g
       id="g4534"
       style="fill:#c7b570;fill-opacity:1;stroke:none" /><g
       id="g4536"
       style="fill:#c7b570;fill-opacity:1;stroke:none" /><g
       id="g4538"
       style="fill:#c7b570;fill-opacity:1;stroke:none" /><g
       id="g4540"
       style="fill:#c7b570;fill-opacity:1;stroke:none" /><g
       id="g4542"
       style="fill:#c7b570;fill-opacity:1;stroke:none" /></g><g
     style="fill:#494949;fill-opacity:1"
     id="g4521"
     transform="matrix(0.14529912,-0.13124011,0.13124011,0.14529912,2.1578965,15.280285)"><g
       id="g4509"
       sketch:type="MSPage"
       style="fill:#494949;fill-opacity:1;fill-rule:evenodd;stroke:none;stroke-width:1"><path
         id="path4507"
         sketch:type="MSShapeGroup"
         d="M 72.674917,46.300986 H 27.326173 v 7.628781 H 72.674917 Z M 84.646654,29 H 63.336199 c -5.709598,0 -10.353346,4.644838 -10.353346,10.353346 v 2.588336 h 7.628781 v -2.588336 c 0,-1.50287 1.221695,-2.724565 2.724565,-2.724565 h 21.310455 c 1.50287,0 2.724565,1.221695 2.724565,2.724565 v 21.524061 c 0,1.50287 -1.221695,2.724564 -2.724565,2.724564 H 63.336199 c -1.50287,0 -2.724565,-1.221694 -2.724565,-2.724564 V 58.28907 h -7.628781 v 2.588337 c 0,5.708508 4.643748,10.353345 10.353346,10.353345 H 84.646654 C 90.355162,71.230752 95,66.585915 95,60.877407 V 39.353346 C 95,33.644838 90.355162,29 84.646654,29 Z M 39.389455,58.28907 h 7.628781 v 2.588337 c 0,5.708508 -4.644837,10.353345 -10.353345,10.353345 H 15.353346 C 9.6448379,71.230752 5,66.585915 5,60.877407 V 39.353346 C 5,33.644838 9.6448379,29 15.353346,29 h 21.311545 c 5.708508,0 10.353345,4.644838 10.353345,10.353346 v 2.588336 h -7.628781 v -2.588336 c 0,-1.50287 -1.221695,-2.724565 -2.724564,-2.724565 H 15.353346 c -1.50287,0 -2.724565,1.221695 -2.724565,2.724565 v 21.524061 c 0,1.50287 1.221695,2.724564 2.724565,2.724564 h 21.311545 c 1.502869,0 2.724564,-1.221694 2.724564,-2.724564 z"
         inkscape:connector-curvature="0"
         style="fill:#494949;fill-opacity:1" /></g></g></svg>