<?xml version="1.0" encoding="UTF-8" standalone="no"?>
<!-- Generator: Adobe Illustrator 16.0.0, SVG Export Plug-In . SVG Version: 6.00 Build 0)  -->

<svg
   xmlns:dc="http://purl.org/dc/elements/1.1/"
   xmlns:cc="http://creativecommons.org/ns#"
   xmlns:rdf="http://www.w3.org/1999/02/22-rdf-syntax-ns#"
   xmlns:svg="http://www.w3.org/2000/svg"
   xmlns="http://www.w3.org/2000/svg"
   xmlns:sodipodi="http://sodipodi.sourceforge.net/DTD/sodipodi-0.dtd"
   xmlns:inkscape="http://www.inkscape.org/namespaces/inkscape"
   version="1.1"
   id="Capa_1"
   x="0px"
   y="0px"
   width="32"
   height="32"
   viewBox="0 0 32 32"
   xml:space="preserve"
   sodipodi:docname="unlink.svg"
   inkscape:version="0.92.1 r15371"><metadata
     id="metadata51"><rdf:RDF><cc:Work
         rdf:about=""><dc:format>image/svg+xml</dc:format><dc:type
           rdf:resource="http://purl.org/dc/dcmitype/StillImage" /><dc:title></dc:title></cc:Work></rdf:RDF></metadata><defs
     id="defs49" /><sodipodi:namedview
     pagecolor="#ffffff"
     bordercolor="#666666"
     borderopacity="1"
     objecttolerance="10"
     gridtolerance="10"
     guidetolerance="10"
     inkscape:pageopacity="0"
     inkscape:pageshadow="2"
     inkscape:window-width="2304"
     inkscape:window-height="1202"
     id="namedview47"
     showgrid="false"
     inkscape:snap-bbox="true"
     inkscape:bbox-paths="true"
     inkscape:bbox-nodes="true"
     inkscape:snap-bbox-edge-midpoints="true"
     inkscape:snap-bbox-midpoints="true"
     inkscape:object-paths="true"
     inkscape:snap-intersection-paths="true"
     inkscape:snap-midpoints="true"
     inkscape:snap-smooth-nodes="true"
     inkscape:zoom="22.627417"
     inkscape:cx="21.139839"
     inkscape:cy="14.44739"
     inkscape:window-x="-11"
     inkscape:window-y="-11"
     inkscape:window-maximized="1"
     inkscape:current-layer="Capa_1"
     showguides="true"
     inkscape:guide-bbox="true"
     inkscape:snap-page="true"
     inkscape:snap-global="false" /><g
     id="g16"
     transform="translate(0,-503.5)" /><g
     id="g18"
     transform="translate(0,-503.5)" /><g
     id="g20"
     transform="translate(0,-503.5)" /><g
     id="g22"
     transform="translate(0,-503.5)" /><g
     id="g24"
     transform="translate(0,-503.5)" /><g
     id="g26"
     transform="translate(0,-503.5)" /><g
     id="g28"
     transform="translate(0,-503.5)" /><g
     id="g30"
     transform="translate(0,-503.5)" /><g
     id="g32"
     transform="translate(0,-503.5)" /><g
     id="g34"
     transform="translate(0,-503.5)" /><g
     id="g36"
     transform="translate(0,-503.5)" /><g
     id="g38"
     transform="translate(0,-503.5)" /><g
     id="g40"
     transform="translate(0,-503.5)" /><g
     id="g42"
     transform="translate(0,-503.5)" /><g
     id="g44"
     transform="translate(0,-503.5)" /><g
     style="fill:#494949;fill-opacity:1"
     id="g4541"
     transform="matrix(0.22117624,-0.20464451,0.20464451,0.22117624,-6.9279806,13.355589)"><g
       id="g4529"
       style="fill:#494949;fill-rule:evenodd;stroke:none;stroke-width:1;fill-opacity:1"><path
         id="path4527"
         d="M 88.278098,45.000047 69.965937,40.521384 c -2.289526,-0.561048 -4.655963,-0.194302 -6.668609,1.027372 -2.013455,1.221674 -3.430241,3.15417 -3.98886,5.442077 l -0.67358,2.755042 6.291339,1.538225 0.673581,-2.755042 c 0.148155,-0.607194 0.524615,-1.119666 1.058136,-1.443503 0.533522,-0.324646 1.160146,-0.421797 1.768959,-0.272832 l 18.312971,4.478663 c 0.606384,0.148155 1.118856,0.522996 1.442692,1.058136 0.323837,0.533522 0.420988,1.161765 0.272833,1.768149 l -4.791166,19.592936 c -0.148155,0.606384 -0.524615,1.118856 -1.058136,1.443503 -0.534331,0.324646 -1.162574,0.421797 -1.768959,0.272832 L 62.524977,70.948279 c -1.252438,-0.306026 -2.02236,-1.574656 -1.716335,-2.827095 l 0.779637,-3.186554 -6.291339,-1.539035 -0.779637,3.187364 c -1.154478,4.721541 1.747909,9.501372 6.46864,10.657469 l 18.312971,4.477853 c 0.699487,0.170824 1.406261,0.255022 2.109796,0.255022 1.592468,0 3.161457,-0.434751 4.558813,-1.283203 2.012645,-1.220865 3.429431,-3.154171 3.98805,-5.441268 l 4.791165,-19.592126 c 1.154478,-4.72235 -1.747909,-9.502991 -6.46864,-10.656659 z M 35.332402,25.362583 42.008297,38.570267 47.788784,35.648449 41.112888,22.440766 Z M 66.445022,21.508116 60.472662,19 53.395209,35.855705 59.367568,38.363011 Z M 41.36791,49.745875 35.075761,51.2841 34.402181,48.529058 c -0.147346,-0.607194 -0.523806,-1.119666 -1.058137,-1.443503 -0.532712,-0.323836 -1.161765,-0.419368 -1.768149,-0.272832 l -18.312161,4.478663 c -0.607194,0.148155 -1.119666,0.523806 -1.443503,1.058136 -0.324646,0.533522 -0.421797,1.161765 -0.272832,1.768149 l 4.791165,19.592126 c 0.306026,1.252439 1.573847,2.02479 2.827095,1.717145 L 37.47782,70.948279 c 0.606385,-0.147346 1.119666,-0.523806 1.443503,-1.058137 0.324646,-0.53433 0.420988,-1.161764 0.272023,-1.768148 l -0.778828,-3.188174 6.292149,-1.537415 0.778828,3.187364 c 0.559428,2.285478 0.194302,4.654344 -1.027372,6.66699 -1.222484,2.012645 -3.154171,3.429431 -5.441268,3.989669 l -18.312971,4.477853 c -0.700297,0.170824 -1.402213,0.253403 -2.092795,0.253403 -3.967001,0 -7.58021,-2.701609 -8.564674,-6.722852 L 5.25525,55.656706 C 4.6966316,53.368799 5.0617576,51.001552 6.2834319,48.988097 7.5042966,46.975451 9.4376022,45.558665 11.725509,45.000047 L 30.03767,40.521384 c 2.285478,-0.560238 4.654344,-0.195112 6.6678,1.027372 2.012645,1.221674 3.429431,3.15417 3.98886,5.442077 z"
         inkscape:connector-curvature="0"
         style="fill:#494949;fill-opacity:1" /></g></g></svg>