<?xml version="1.0" encoding="UTF-8" standalone="no"?>
<!-- Created with Inkscape (http://www.inkscape.org/) -->

<svg
   xmlns:dc="http://purl.org/dc/elements/1.1/"
   xmlns:cc="http://creativecommons.org/ns#"
   xmlns:rdf="http://www.w3.org/1999/02/22-rdf-syntax-ns#"
   xmlns:svg="http://www.w3.org/2000/svg"
   xmlns="http://www.w3.org/2000/svg"
   xmlns:sodipodi="http://sodipodi.sourceforge.net/DTD/sodipodi-0.dtd"
   xmlns:inkscape="http://www.inkscape.org/namespaces/inkscape"
   width="32"
   height="32"
   id="svg2"
   version="1.1"
   inkscape:version="0.92.1 r15371"
   sodipodi:docname="xlsxfile.svg"
   inkscape:export-filename="C:\documents\deposit_1_1\_res\dep_cube_256px.png"
   inkscape:export-xdpi="720"
   inkscape:export-ydpi="720">
  <defs
     id="defs4">
    <inkscape:perspective
       sodipodi:type="inkscape:persp3d"
       inkscape:vp_x="-173.42076 : 134.99922 : 1"
       inkscape:vp_y="0 : 1066.6667 : 0"
       inkscape:vp_z="204.11941 : 133.73499 : 1"
       inkscape:persp3d-origin="5.5877722 : 6.6606441 : 1"
       id="perspective3029" />
  </defs>
  <sodipodi:namedview
     id="base"
     pagecolor="#ffffff"
     bordercolor="#666666"
     borderopacity="1.0"
     inkscape:pageopacity="0.0"
     inkscape:pageshadow="2"
     inkscape:zoom="11.313709"
     inkscape:cx="12.305518"
     inkscape:cy="18.10304"
     inkscape:document-units="px"
     inkscape:current-layer="layer1"
     showgrid="false"
     showguides="true"
     inkscape:guide-bbox="true"
     inkscape:snap-bbox="true"
     inkscape:bbox-nodes="true"
     inkscape:bbox-paths="true"
     inkscape:snap-bbox-edge-midpoints="true"
     inkscape:snap-bbox-midpoints="true"
     inkscape:snap-global="true"
     inkscape:window-width="1593"
     inkscape:window-height="1191"
     inkscape:window-x="75"
     inkscape:window-y="0"
     inkscape:window-maximized="0"
     inkscape:object-paths="true"
     inkscape:snap-intersection-paths="true"
     inkscape:snap-smooth-nodes="true"
     inkscape:snap-midpoints="true"
     inkscape:object-nodes="true"
     inkscape:snap-center="false"
     inkscape:snap-object-midpoints="true">
    <sodipodi:guide
       orientation="0,1"
       position="69.866667,134.93333"
       id="guide3143"
       inkscape:locked="false" />
  </sodipodi:namedview>
  <metadata
     id="metadata7">
    <rdf:RDF>
      <cc:Work
         rdf:about="">
        <dc:format>image/svg+xml</dc:format>
        <dc:type
           rdf:resource="http://purl.org/dc/dcmitype/StillImage" />
        <dc:title></dc:title>
      </cc:Work>
    </rdf:RDF>
  </metadata>
  <g
     inkscape:label="Layer 1"
     inkscape:groupmode="layer"
     id="layer1"
     transform="translate(0,-1090.5196)">
    <g
       id="g4643">
      <path
         inkscape:connector-curvature="0"
         id="path4517"
         d="m 7.578125,1117.9934 0.015625,-16.9219 6.09375,-6.0625 10.921875,0.1563 -0.125,22.9062 z"
         style="fill:#ffffff;fill-opacity:1;stroke:none;stroke-width:1px;stroke-linecap:butt;stroke-linejoin:miter;stroke-opacity:1" />
      <path
         inkscape:connector-curvature="0"
         d="m 24.5,1094.5196 h -11 c -0.067,0 -0.133,0.014 -0.194,0.039 -0.019,0.01 -0.033,0.023 -0.05,0.034 -0.038,0.022 -0.078,0.042 -0.11,0.073 l -6,6 c -0.023,0.023 -0.036,0.054 -0.054,0.081 -0.018,0.027 -0.041,0.05 -0.053,0.08 -0.025,0.061 -0.039,0.126 -0.039,0.193 v 17 c 0,0.276 0.224,0.5 0.5,0.5 h 17 c 0.276,0 0.5,-0.224 0.5,-0.5 v -23 c 0,-0.276 -0.224,-0.5 -0.5,-0.5 z m -11.5,1.707 v 4.293 H 8.707 Z m 11,21.293 H 8 v -16 h 5.5 c 0.276,0 0.5,-0.224 0.5,-0.5 v -5.5 h 10 z"
         id="path4495"
         style="fill:#000000" />
      <polygon
         transform="matrix(0.225,0,0,0.24,4.84375,1095.4679)"
         points="42.344,46.135 72.932,76.795 72.932,79.839 56.222,79.839 27.121,50.738 27.121,46.135 "
         id="polygon4579"
         style="fill:#217346;fill-opacity:1" />
      <g
         transform="matrix(0.225,0,0,0.24,4.84375,1095.4679)"
         id="g4587"
         style="fill:#217346;fill-opacity:1">
        <polygon
           points="71.394,65.961 71.394,62.986 62.22,62.986 68.516,69.297 "
           id="polygon4581"
           style="fill:#217346;fill-opacity:1" />
        <polygon
           points="58.573,59.331 69.905,50.596 69.835,46.135 54.753,46.135 50.069,50.807 "
           id="polygon4583"
           style="fill:#217346;fill-opacity:1" />
        <polygon
           points="27.068,73.749 27.068,76.795 50.109,76.795 37.079,63.765 "
           id="polygon4585"
           style="fill:#217346;fill-opacity:1" />
      </g>
    </g>
  </g>
</svg>
