<?xml version="1.0" encoding="UTF-8" standalone="no"?>
<!-- Generator: Adobe Illustrator 16.0.0, SVG Export Plug-In . SVG Version: 6.00 Build 0)  -->

<svg
   xmlns:dc="http://purl.org/dc/elements/1.1/"
   xmlns:cc="http://creativecommons.org/ns#"
   xmlns:rdf="http://www.w3.org/1999/02/22-rdf-syntax-ns#"
   xmlns:svg="http://www.w3.org/2000/svg"
   xmlns="http://www.w3.org/2000/svg"
   xmlns:sodipodi="http://sodipodi.sourceforge.net/DTD/sodipodi-0.dtd"
   xmlns:inkscape="http://www.inkscape.org/namespaces/inkscape"
   version="1.1"
   id="Capa_1"
   x="0px"
   y="0px"
   width="32"
   height="32"
   viewBox="0 0 32 32"
   xml:space="preserve"
   sodipodi:docname="calculator.svg"
   inkscape:version="0.92.1 r15371"><metadata
     id="metadata51"><rdf:RDF><cc:Work
         rdf:about=""><dc:format>image/svg+xml</dc:format><dc:type
           rdf:resource="http://purl.org/dc/dcmitype/StillImage" /><dc:title></dc:title></cc:Work></rdf:RDF></metadata><defs
     id="defs49" /><sodipodi:namedview
     pagecolor="#ffffff"
     bordercolor="#666666"
     borderopacity="1"
     objecttolerance="10"
     gridtolerance="10"
     guidetolerance="10"
     inkscape:pageopacity="0"
     inkscape:pageshadow="2"
     inkscape:window-width="2304"
     inkscape:window-height="1202"
     id="namedview47"
     showgrid="false"
     inkscape:snap-bbox="true"
     inkscape:bbox-paths="true"
     inkscape:bbox-nodes="true"
     inkscape:snap-bbox-edge-midpoints="true"
     inkscape:snap-bbox-midpoints="true"
     inkscape:object-paths="true"
     inkscape:snap-intersection-paths="true"
     inkscape:snap-midpoints="true"
     inkscape:snap-smooth-nodes="true"
     inkscape:zoom="15.174004"
     inkscape:cx="13.004529"
     inkscape:cy="18.362883"
     inkscape:window-x="-11"
     inkscape:window-y="-11"
     inkscape:window-maximized="1"
     inkscape:current-layer="Capa_1" /><rect
     style="opacity:1;fill:#ffffff;fill-opacity:1;stroke:none;stroke-width:1.07687712;stroke-opacity:1"
     id="rect4530"
     width="20.399843"
     height="27.492285"
     x="5.8000784"
     y="2.3988438" /><rect
     style="opacity:1;fill:#f9b406;fill-opacity:1;stroke:none;stroke-opacity:1"
     id="rect4528"
     width="4.1518378"
     height="7.7105556"
     x="21.220503"
     y="21.060238" /><g
     id="g14"
     style="fill:#00bbd6;fill-opacity:1"
     transform="matrix(0.05470036,0,0,0.05470036,1.3539786,1.3539786)"><path
       d="M 435.094,0 H 100.406 C 89.84,0 81.281,8.559 81.281,19.125 V 181.687 H 454.219 V 19.125 C 454.219,8.559 445.66,0 435.094,0 Z M 415.969,133.875 H 119.531 V 38.25 h 296.438 z"
       id="path2"
       style="fill:#00bbd6;fill-opacity:1"
       inkscape:connector-curvature="0" /><path
       d="m 81.281,516.375 c 0,10.566 8.559,19.125 19.125,19.125 h 334.688 c 10.566,0 19.125,-8.559 19.125,-19.125 V 191.25 H 81.281 Z M 368.156,239.062 c 0,-10.566 8.559,-19.125 19.125,-19.125 h 28.688 c 10.566,0 19.125,8.559 19.125,19.125 v 9.562 c 0,10.566 -8.559,19.125 -19.125,19.125 h -28.688 c -10.566,0 -19.125,-8.559 -19.125,-19.125 z m 0,76.5 c 0,-10.566 8.559,-19.125 19.125,-19.125 h 28.688 c 10.566,0 19.125,8.559 19.125,19.125 v 9.562 c 0,10.566 -8.559,19.125 -19.125,19.125 h -28.688 c -10.566,0 -19.125,-8.559 -19.125,-19.125 z m 0,76.5 c 0,-10.566 8.559,-19.125 19.125,-19.125 h 28.688 c 10.566,0 19.125,8.559 19.125,19.125 v 86.062 c 0,10.566 -8.559,19.125 -19.125,19.125 h -28.688 c -10.566,0 -19.125,-8.559 -19.125,-19.125 z m -86.062,-153 c 0,-10.566 8.559,-19.125 19.125,-19.125 h 28.688 c 10.566,0 19.125,8.559 19.125,19.125 v 9.562 c 0,10.566 -8.559,19.125 -19.125,19.125 h -28.688 c -10.566,0 -19.125,-8.559 -19.125,-19.125 z m 0,76.5 c 0,-10.566 8.559,-19.125 19.125,-19.125 h 28.688 c 10.566,0 19.125,8.559 19.125,19.125 v 9.562 c 0,10.566 -8.559,19.125 -19.125,19.125 h -28.688 c -10.566,0 -19.125,-8.559 -19.125,-19.125 z m 0,76.5 c 0,-10.566 8.559,-19.125 19.125,-19.125 h 28.688 c 10.566,0 19.125,8.559 19.125,19.125 v 9.562 c 0,10.566 -8.559,19.125 -19.125,19.125 h -28.688 c -10.566,0 -19.125,-8.559 -19.125,-19.125 z m 0,76.5 c 0,-10.566 8.559,-19.125 19.125,-19.125 h 28.688 c 10.566,0 19.125,8.559 19.125,19.125 v 9.562 c 0,10.566 -8.559,19.125 -19.125,19.125 h -28.688 c -10.566,0 -19.125,-8.559 -19.125,-19.125 z m -86.063,-229.5 c 0,-10.566 8.559,-19.125 19.125,-19.125 h 28.688 c 10.566,0 19.125,8.559 19.125,19.125 v 9.562 c 0,10.566 -8.559,19.125 -19.125,19.125 h -28.688 c -10.566,0 -19.125,-8.559 -19.125,-19.125 z m 0,76.5 c 0,-10.566 8.559,-19.125 19.125,-19.125 h 28.688 c 10.566,0 19.125,8.559 19.125,19.125 v 9.562 c 0,10.566 -8.559,19.125 -19.125,19.125 h -28.688 c -10.566,0 -19.125,-8.559 -19.125,-19.125 z m 0,76.5 c 0,-10.566 8.559,-19.125 19.125,-19.125 h 28.688 c 10.566,0 19.125,8.559 19.125,19.125 v 9.562 c 0,10.566 -8.559,19.125 -19.125,19.125 h -28.688 c -10.566,0 -19.125,-8.559 -19.125,-19.125 z m 0,76.5 c 0,-10.566 8.559,-19.125 19.125,-19.125 h 28.688 c 10.566,0 19.125,8.559 19.125,19.125 v 9.562 c 0,10.566 -8.559,19.125 -19.125,19.125 h -28.688 c -10.566,0 -19.125,-8.559 -19.125,-19.125 z m -86.062,-229.5 c 0,-10.566 8.559,-19.125 19.125,-19.125 h 28.688 c 10.566,0 19.125,8.559 19.125,19.125 v 9.562 c 0,10.566 -8.559,19.125 -19.125,19.125 h -28.688 c -10.566,0 -19.125,-8.559 -19.125,-19.125 z m 0,76.5 c 0,-10.566 8.559,-19.125 19.125,-19.125 h 28.688 c 10.566,0 19.125,8.559 19.125,19.125 v 9.562 c 0,10.566 -8.559,19.125 -19.125,19.125 h -28.688 c -10.566,0 -19.125,-8.559 -19.125,-19.125 z m 0,76.5 c 0,-10.566 8.559,-19.125 19.125,-19.125 h 28.688 c 10.566,0 19.125,8.559 19.125,19.125 v 9.562 c 0,10.566 -8.559,19.125 -19.125,19.125 h -28.688 c -10.566,0 -19.125,-8.559 -19.125,-19.125 z m 0,76.5 c 0,-10.566 8.559,-19.125 19.125,-19.125 h 28.688 c 10.566,0 19.125,8.559 19.125,19.125 v 9.562 c 0,10.566 -8.559,19.125 -19.125,19.125 h -28.688 c -10.566,0 -19.125,-8.559 -19.125,-19.125 z"
       id="path4"
       style="fill:#00bbd6;fill-opacity:1"
       inkscape:connector-curvature="0" /><polygon
       points="406.406,258.188 406.406,248.625 415.969,248.625 415.969,239.062 406.406,239.062 406.406,229.5 396.844,229.5 396.844,239.062 387.281,239.062 387.281,248.625 396.844,248.625 396.844,258.188 "
       id="polygon6"
       style="fill:#00bbd6;fill-opacity:1" /><rect
       x="387.28101"
       y="420.75"
       width="28.688"
       height="9.5620003"
       id="rect8"
       style="fill:#00bbd6;fill-opacity:1" /><rect
       x="387.28101"
       y="315.56201"
       width="28.688"
       height="9.5620003"
       id="rect10"
       style="fill:#00bbd6;fill-opacity:1" /><rect
       x="387.28101"
       y="439.875"
       width="28.688"
       height="9.5620003"
       id="rect12"
       style="fill:#00bbd6;fill-opacity:1" /></g><g
     id="g16"
     transform="translate(0,-503.5)" /><g
     id="g18"
     transform="translate(0,-503.5)" /><g
     id="g20"
     transform="translate(0,-503.5)" /><g
     id="g22"
     transform="translate(0,-503.5)" /><g
     id="g24"
     transform="translate(0,-503.5)" /><g
     id="g26"
     transform="translate(0,-503.5)" /><g
     id="g28"
     transform="translate(0,-503.5)" /><g
     id="g30"
     transform="translate(0,-503.5)" /><g
     id="g32"
     transform="translate(0,-503.5)" /><g
     id="g34"
     transform="translate(0,-503.5)" /><g
     id="g36"
     transform="translate(0,-503.5)" /><g
     id="g38"
     transform="translate(0,-503.5)" /><g
     id="g40"
     transform="translate(0,-503.5)" /><g
     id="g42"
     transform="translate(0,-503.5)" /><g
     id="g44"
     transform="translate(0,-503.5)" /></svg>