<?xml version="1.0" encoding="UTF-8" standalone="no"?>
<svg
   xmlns:dc="http://purl.org/dc/elements/1.1/"
   xmlns:cc="http://creativecommons.org/ns#"
   xmlns:rdf="http://www.w3.org/1999/02/22-rdf-syntax-ns#"
   xmlns:svg="http://www.w3.org/2000/svg"
   xmlns="http://www.w3.org/2000/svg"
   xmlns:sodipodi="http://sodipodi.sourceforge.net/DTD/sodipodi-0.dtd"
   xmlns:inkscape="http://www.inkscape.org/namespaces/inkscape"
   enable-background="new 0 0 32 32"
   height="32px"
   id="Layer_1"
   version="1.1"
   viewBox="0 0 32 32"
   width="32px"
   xml:space="preserve"
   sodipodi:docname="database.svg"
   inkscape:version="0.92.1 r15371"><metadata
     id="metadata12"><rdf:RDF><cc:Work
         rdf:about=""><dc:format>image/svg+xml</dc:format><dc:type
           rdf:resource="http://purl.org/dc/dcmitype/StillImage" /><dc:title></dc:title></cc:Work></rdf:RDF></metadata><defs
     id="defs10" /><sodipodi:namedview
     pagecolor="#ffffff"
     bordercolor="#666666"
     borderopacity="1"
     objecttolerance="10"
     gridtolerance="10"
     guidetolerance="10"
     inkscape:pageopacity="0"
     inkscape:pageshadow="2"
     inkscape:window-width="1920"
     inkscape:window-height="1001"
     id="namedview8"
     showgrid="false"
     inkscape:zoom="11.313708"
     inkscape:cx="42.79374"
     inkscape:cy="15.616593"
     inkscape:window-x="-9"
     inkscape:window-y="-9"
     inkscape:window-maximized="1"
     inkscape:current-layer="layer1"
     inkscape:snap-bbox="true"
     inkscape:bbox-paths="true"
     inkscape:snap-bbox-midpoints="true"
     inkscape:snap-bbox-edge-midpoints="true"
     inkscape:bbox-nodes="true" /><g
     inkscape:groupmode="layer"
     id="layer1"
     inkscape:label="Layer 1"
     style="display:inline"><path
       inkscape:connector-curvature="0"
       d="m 15.999994,14.11338 q 3.493208,0 6.529488,-0.633789 3.03628,-0.633788 4.790257,-1.871887 v 2.505676 q 0,1.017008 -1.518141,1.88662 -1.518141,0.869619 -4.12699,1.378121 -2.608849,0.508505 -5.674614,0.508505 -3.065754,0 -5.674603,-0.508505 Q 7.7165423,16.869619 6.1984023,16 4.6802613,15.130388 4.6802613,14.11338 v -2.505676 q 1.753976,1.238099 4.790256,1.871887 3.0362797,0.633789 6.5294767,0.633789 z m 0,11.319737 q 3.493208,0 6.529488,-0.633789 3.03628,-0.633786 4.790257,-1.871882 v 2.505671 q 0,1.017008 -1.518141,1.886621 -1.518141,0.869617 -4.12699,1.378119 -2.608849,0.508506 -5.674614,0.508506 -3.065754,0 -5.674603,-0.508506 -2.6088488,-0.508502 -4.1269887,-1.378119 -1.518141,-0.869613 -1.518141,-1.886621 v -2.505671 q 1.753976,1.238096 4.790256,1.871882 3.0362797,0.633789 6.5294767,0.633789 z m 0,-5.659871 q 3.493208,0 6.529488,-0.633784 3.03628,-0.633791 4.790257,-1.871887 v 2.505671 q 0,1.017008 -1.518141,1.886625 -1.518141,0.869614 -4.12699,1.378119 -2.608849,0.508502 -5.674614,0.508502 -3.065754,0 -5.674603,-0.508502 -2.6088488,-0.508505 -4.1269887,-1.378119 -1.518141,-0.869617 -1.518141,-1.886625 v -2.505671 q 1.753976,1.238096 4.790256,1.871887 3.0362797,0.633784 6.5294767,0.633784 z m 0,-16.979609 q 3.065765,0 5.674614,0.5085038 2.608849,0.5085027 4.12699,1.3781201 1.518141,0.8696153 1.518141,1.8866229 v 1.8866229 q 0,1.0170076 -1.518141,1.8866213 -1.518141,0.869618 -4.12699,1.37812 -2.608849,0.508505 -5.674614,0.508505 -3.065754,0 -5.674603,-0.508505 Q 7.7165422,11.209746 6.1984023,10.340128 4.6802613,9.4705143 4.6802613,8.4535067 V 6.5668838 q 0,-1.0170076 1.518141,-1.8866229 Q 7.7165422,3.8106435 10.325391,3.3021408 12.93424,2.793637 15.999994,2.793637 Z"
       id="path2"
       style="fill:#5a3b00;fill-opacity:1;stroke:none;stroke-width:0.01473924;stroke-opacity:1" /></g></svg>