<?xml version="1.0" encoding="UTF-8" standalone="no"?>
<!-- Generator: Adobe Illustrator 16.0.0, SVG Export Plug-In . SVG Version: 6.00 Build 0)  -->

<svg
   xmlns:sketch="http://www.bohemiancoding.com/sketch/ns"
   xmlns:dc="http://purl.org/dc/elements/1.1/"
   xmlns:cc="http://creativecommons.org/ns#"
   xmlns:rdf="http://www.w3.org/1999/02/22-rdf-syntax-ns#"
   xmlns:svg="http://www.w3.org/2000/svg"
   xmlns="http://www.w3.org/2000/svg"
   xmlns:sodipodi="http://sodipodi.sourceforge.net/DTD/sodipodi-0.dtd"
   xmlns:inkscape="http://www.inkscape.org/namespaces/inkscape"
   version="1.1"
   id="Capa_1"
   x="0px"
   y="0px"
   width="32"
   height="32"
   viewBox="0 0 32 32"
   xml:space="preserve"
   sodipodi:docname="link.svg"
   inkscape:version="0.92.1 r15371"><metadata
     id="metadata51"><rdf:RDF><cc:Work
         rdf:about=""><dc:format>image/svg+xml</dc:format><dc:type
           rdf:resource="http://purl.org/dc/dcmitype/StillImage" /><dc:title></dc:title></cc:Work></rdf:RDF></metadata><defs
     id="defs49" /><sodipodi:namedview
     pagecolor="#ffffff"
     bordercolor="#666666"
     borderopacity="1"
     objecttolerance="10"
     gridtolerance="10"
     guidetolerance="10"
     inkscape:pageopacity="0"
     inkscape:pageshadow="2"
     inkscape:window-width="2304"
     inkscape:window-height="1202"
     id="namedview47"
     showgrid="false"
     inkscape:snap-bbox="true"
     inkscape:bbox-paths="true"
     inkscape:bbox-nodes="true"
     inkscape:snap-bbox-edge-midpoints="true"
     inkscape:snap-bbox-midpoints="true"
     inkscape:object-paths="true"
     inkscape:snap-intersection-paths="true"
     inkscape:snap-midpoints="true"
     inkscape:snap-smooth-nodes="true"
     inkscape:zoom="11.313708"
     inkscape:cx="8.5970906"
     inkscape:cy="33.550945"
     inkscape:window-x="-11"
     inkscape:window-y="-11"
     inkscape:window-maximized="1"
     inkscape:current-layer="Capa_1"
     showguides="true"
     inkscape:guide-bbox="true"
     inkscape:snap-page="true" /><g
     id="g16"
     transform="translate(0,-503.5)" /><g
     id="g18"
     transform="translate(0,-503.5)" /><g
     id="g20"
     transform="translate(0,-503.5)" /><g
     id="g22"
     transform="translate(0,-503.5)" /><g
     id="g24"
     transform="translate(0,-503.5)" /><g
     id="g26"
     transform="translate(0,-503.5)" /><g
     id="g28"
     transform="translate(0,-503.5)" /><g
     id="g30"
     transform="translate(0,-503.5)" /><g
     id="g32"
     transform="translate(0,-503.5)" /><g
     id="g34"
     transform="translate(0,-503.5)" /><g
     id="g36"
     transform="translate(0,-503.5)" /><g
     id="g38"
     transform="translate(0,-503.5)" /><g
     id="g40"
     transform="translate(0,-503.5)" /><g
     id="g42"
     transform="translate(0,-503.5)" /><g
     id="g44"
     transform="translate(0,-503.5)" /><g
     style="fill:#494949;fill-opacity:1"
     id="g4521"
     transform="matrix(0.20038093,-0.18099225,0.18099225,0.20038093,-3.0778762,15.019112)"><g
       id="g4509"
       sketch:type="MSPage"
       style="fill:#494949;fill-rule:evenodd;stroke:none;stroke-width:1;fill-opacity:1"><path
         id="path4507"
         sketch:type="MSShapeGroup"
         d="M 72.674917,46.300986 H 27.326173 v 7.628781 H 72.674917 Z M 84.646654,29 H 63.336199 c -5.709598,0 -10.353346,4.644838 -10.353346,10.353346 v 2.588336 h 7.628781 v -2.588336 c 0,-1.50287 1.221695,-2.724565 2.724565,-2.724565 h 21.310455 c 1.50287,0 2.724565,1.221695 2.724565,2.724565 v 21.524061 c 0,1.50287 -1.221695,2.724564 -2.724565,2.724564 H 63.336199 c -1.50287,0 -2.724565,-1.221694 -2.724565,-2.724564 V 58.28907 h -7.628781 v 2.588337 c 0,5.708508 4.643748,10.353345 10.353346,10.353345 H 84.646654 C 90.355162,71.230752 95,66.585915 95,60.877407 V 39.353346 C 95,33.644838 90.355162,29 84.646654,29 Z M 39.389455,58.28907 h 7.628781 v 2.588337 c 0,5.708508 -4.644837,10.353345 -10.353345,10.353345 H 15.353346 C 9.6448379,71.230752 5,66.585915 5,60.877407 V 39.353346 C 5,33.644838 9.6448379,29 15.353346,29 h 21.311545 c 5.708508,0 10.353345,4.644838 10.353345,10.353346 v 2.588336 h -7.628781 v -2.588336 c 0,-1.50287 -1.221695,-2.724565 -2.724564,-2.724565 H 15.353346 c -1.50287,0 -2.724565,1.221695 -2.724565,2.724565 v 21.524061 c 0,1.50287 1.221695,2.724564 2.724565,2.724564 h 21.311545 c 1.502869,0 2.724564,-1.221694 2.724564,-2.724564 z"
         inkscape:connector-curvature="0"
         style="fill:#494949;fill-opacity:1" /></g></g></svg>