<?xml version="1.0" encoding="UTF-8" standalone="no"?>
<!-- Generator: Adobe Illustrator 16.0.0, SVG Export Plug-In . SVG Version: 6.00 Build 0)  -->

<svg
   xmlns:dc="http://purl.org/dc/elements/1.1/"
   xmlns:cc="http://creativecommons.org/ns#"
   xmlns:rdf="http://www.w3.org/1999/02/22-rdf-syntax-ns#"
   xmlns:svg="http://www.w3.org/2000/svg"
   xmlns="http://www.w3.org/2000/svg"
   xmlns:sodipodi="http://sodipodi.sourceforge.net/DTD/sodipodi-0.dtd"
   xmlns:inkscape="http://www.inkscape.org/namespaces/inkscape"
   version="1.1"
   id="Capa_1"
   x="0px"
   y="0px"
   width="32"
   height="32"
   viewBox="0 0 32 32"
   xml:space="preserve"
   sodipodi:docname="new_file.svg"
   inkscape:version="0.92.1 r15371"><metadata
     id="metadata51"><rdf:RDF><cc:Work
         rdf:about=""><dc:format>image/svg+xml</dc:format><dc:type
           rdf:resource="http://purl.org/dc/dcmitype/StillImage" /><dc:title /></cc:Work></rdf:RDF></metadata><defs
     id="defs49" /><sodipodi:namedview
     pagecolor="#ffffff"
     bordercolor="#666666"
     borderopacity="1"
     objecttolerance="10"
     gridtolerance="10"
     guidetolerance="10"
     inkscape:pageopacity="0"
     inkscape:pageshadow="2"
     inkscape:window-width="1920"
     inkscape:window-height="1001"
     id="namedview47"
     showgrid="false"
     inkscape:snap-bbox="true"
     inkscape:bbox-paths="true"
     inkscape:bbox-nodes="true"
     inkscape:snap-bbox-edge-midpoints="true"
     inkscape:snap-bbox-midpoints="true"
     inkscape:object-paths="true"
     inkscape:snap-intersection-paths="true"
     inkscape:snap-midpoints="true"
     inkscape:snap-smooth-nodes="true"
     inkscape:zoom="5.6568542"
     inkscape:cx="11.431388"
     inkscape:cy="-20.594714"
     inkscape:window-x="-9"
     inkscape:window-y="-9"
     inkscape:window-maximized="1"
     inkscape:current-layer="Capa_1"
     showguides="false"
     inkscape:guide-bbox="true"
     inkscape:snap-page="true"
     inkscape:snap-global="true" /><g
     id="g4533"
     transform="matrix(0.80630079,0,0,0.80630079,2.7924482,3.3062267)"
     style="stroke-width:1;stroke-miterlimit:4;stroke-dasharray:none"><path
       inkscape:connector-curvature="0"
       id="path4527"
       d="M 6.6120579,28.368224 V 3.1939735 l 13.0176571,-0.075751 6.540879,6.414854 -0.03205,18.8351475 z"
       style="fill:#fcfcfc;fill-opacity:1;stroke:none;stroke-width:1;stroke-linecap:butt;stroke-linejoin:miter;stroke-miterlimit:4;stroke-dasharray:none;stroke-opacity:1" /><g
       style="fill:#000000;fill-opacity:1;stroke:none;stroke-width:38.43654251;stroke-miterlimit:4;stroke-dasharray:none;stroke-opacity:1"
       transform="matrix(0.0262707,0,0,0.02576557,3.245205,2.860567)"
       id="g4516"><g
         style="fill:#000000;fill-opacity:1;stroke:none;stroke-width:384.36541748;stroke-miterlimit:4;stroke-dasharray:none;stroke-opacity:1"
         transform="matrix(0.1,0,0,-0.1,0,511)"
         id="g4514"><path
           style="fill:#000000;fill-opacity:1;stroke:none;stroke-width:384.36541748;stroke-miterlimit:4;stroke-dasharray:none;stroke-opacity:1"
           inkscape:connector-curvature="0"
           d="m 1281.6,4980.6 c -7.4,-17.2 -9.8,-2222.5 -7.4,-4901.2 l 7.4,-4869.3 H 4998 8714.4 l 7.3,3655.1 4.9,3655.1 L 7482.9,3763.8 6236.8,5010 H 3764.1 C 1809,5010 1289,5002.6 1281.6,4980.6 Z m 4702.5,-1533.2 7.4,-1172.6 1172.5,-7.4 1170.1,-4.9 V -1073.7 -4409.9 H 4998 1661.8 V 103.9 4617.5 h 2158.7 2158.7 z m 1246.2,54 846.3,-846.3 h -853.7 -851.2 v 846.3 c 0,466.1 2.4,846.3 7.4,846.3 2.4,0 385.1,-380.3 851.2,-846.3 z"
           id="path4512" /></g></g></g></svg>