<?xml version="1.0" encoding="UTF-8" standalone="no"?>
<!-- Created with Inkscape (http://www.inkscape.org/) -->

<svg
   xmlns:dc="http://purl.org/dc/elements/1.1/"
   xmlns:cc="http://creativecommons.org/ns#"
   xmlns:rdf="http://www.w3.org/1999/02/22-rdf-syntax-ns#"
   xmlns:svg="http://www.w3.org/2000/svg"
   xmlns="http://www.w3.org/2000/svg"
   xmlns:sodipodi="http://sodipodi.sourceforge.net/DTD/sodipodi-0.dtd"
   xmlns:inkscape="http://www.inkscape.org/namespaces/inkscape"
   width="32"
   height="32"
   viewBox="0 0 32 32"
   version="1.1"
   id="svg8"
   inkscape:version="0.92.1 r15371"
   sodipodi:docname="table.svg">
  <defs
     id="defs2" />
  <sodipodi:namedview
     id="base"
     pagecolor="#ffffff"
     bordercolor="#666666"
     borderopacity="1.0"
     inkscape:pageopacity="0.0"
     inkscape:pageshadow="2"
     inkscape:zoom="11.2"
     inkscape:cx="5.3784356"
     inkscape:cy="16.270848"
     inkscape:document-units="px"
     inkscape:current-layer="svg8"
     showgrid="false"
     units="px"
     showguides="true"
     inkscape:guide-bbox="true"
     inkscape:snap-bbox="true"
     inkscape:bbox-paths="true"
     inkscape:bbox-nodes="true"
     inkscape:snap-bbox-edge-midpoints="true"
     inkscape:snap-bbox-midpoints="true"
     inkscape:object-paths="true"
     inkscape:snap-intersection-paths="true"
     inkscape:snap-page="true"
     inkscape:snap-text-baseline="true"
     inkscape:snap-center="true"
     inkscape:snap-object-midpoints="true"
     inkscape:window-width="2304"
     inkscape:window-height="1202"
     inkscape:window-x="-11"
     inkscape:window-y="-11"
     inkscape:window-maximized="1" />
  <metadata
     id="metadata5">
    <rdf:RDF>
      <cc:Work
         rdf:about="">
        <dc:format>image/svg+xml</dc:format>
        <dc:type
           rdf:resource="http://purl.org/dc/dcmitype/StillImage" />
        <dc:title></dc:title>
      </cc:Work>
    </rdf:RDF>
  </metadata>
  <g
     id="g5038"
     transform="matrix(3.5017738,0,0,3.5016151,1.2396824,1.4503097)">
    <rect
       y="1.9314276"
       x="0.37286583"
       height="5.6583147"
       width="7.7209349"
       id="rect4596"
       style="opacity:1;fill:#ffffff;fill-opacity:1;stroke:none;stroke-width:1.41182196;stroke-miterlimit:4;stroke-dasharray:none;stroke-opacity:1" />
    <path
       id="path4526"
       d="M 8.1314609,0.78609683 H 0.33512296 c -0.044829,0 -0.081212,0.0353346 -0.081212,0.078872 V 7.602084 c 0,0.043537 0.036383,0.078872 0.081212,0.078872 H 8.1314609 c 0.04483,0 0.08121,-0.035335 0.08121,-0.078872 V 0.8649688 c 0,-0.0435373 -0.03638,-0.078872 -0.08121,-0.078872 z M 8.0502508,2.7908938 H 5.6138939 V 0.94384079 h 2.436355 z m -5.0351349,0 V 0.94384079 H 5.4514717 V 2.7908938 Z M 5.4514717,2.9486377 V 7.523212 H 3.0151138 V 2.9486377 Z M 2.8526908,0.94384079 V 2.7908938 H 0.41633486 V 0.94384079 Z M 0.41633486,2.9486377 H 2.8526908 V 7.523212 H 0.41633486 Z M 5.6138939,7.523212 V 2.9486377 h 2.436355 V 7.523212 Z"
       inkscape:connector-curvature="0"
       sodipodi:nodetypes="ssssssssscccccccccccccccccccccccccccccc"
       style="fill:#494949;fill-opacity:1;stroke-width:0.16006672" />
    <rect
       y="0.94384074"
       x="0.41658026"
       height="0.85779929"
       width="7.633914"
       id="rect4598"
       style="opacity:1;fill:#00bbd6;fill-opacity:1;stroke:none;stroke-width:1.4461621;stroke-miterlimit:4;stroke-dasharray:none;stroke-opacity:1" />
    <path
       id="path4528"
       d="m 1.9593598,4.6838211 h -0.649695 c -0.04483,0 -0.08121,0.035335 -0.08121,0.078872 0,0.043537 0.03638,0.078872 0.08121,0.078872 h 0.649695 c 0.04483,0 0.08121,-0.035335 0.08121,-0.078872 0,-0.043537 -0.03638,-0.078872 -0.08121,-0.078872 z"
       inkscape:connector-curvature="0"
       style="fill:#494949;fill-opacity:1;stroke-width:0.16006672" />
    <path
       id="path4530"
       d="m 1.9593598,5.6302846 h -0.649695 c -0.04483,0 -0.08121,0.035335 -0.08121,0.078872 0,0.043537 0.03638,0.078872 0.08121,0.078872 h 0.649695 c 0.04483,0 0.08121,-0.035335 0.08121,-0.078872 0,-0.043537 -0.03638,-0.078872 -0.08121,-0.078872 z"
       inkscape:connector-curvature="0"
       style="fill:#494949;fill-opacity:1;stroke-width:0.16006672" />
    <path
       id="path4532"
       d="m 1.9593598,6.5767484 h -0.649695 c -0.04483,0 -0.08121,0.035335 -0.08121,0.078872 0,0.043537 0.03638,0.078872 0.08121,0.078872 h 0.649695 c 0.04483,0 0.08121,-0.035335 0.08121,-0.078872 0,-0.043537 -0.03638,-0.078872 -0.08121,-0.078872 z"
       inkscape:connector-curvature="0"
       style="fill:#494949;fill-opacity:1;stroke-width:0.16006672" />
    <path
       id="path4534"
       d="m 3.9084447,4.8415649 h 0.6496942 c 0.04483,0 0.08121,-0.035335 0.08121,-0.078872 0,-0.043537 -0.03638,-0.078872 -0.08121,-0.078872 H 3.9084447 c -0.04483,0 -0.08121,0.035335 -0.08121,0.078872 0,0.043537 0.03638,0.078872 0.08121,0.078872 z"
       inkscape:connector-curvature="0"
       style="fill:#494949;fill-opacity:1;stroke-width:0.16006672" />
    <path
       id="path4536"
       d="m 3.9084447,5.7880287 h 0.6496942 c 0.04483,0 0.08121,-0.035335 0.08121,-0.078872 0,-0.043537 -0.03638,-0.078872 -0.08121,-0.078872 H 3.9084447 c -0.04483,0 -0.08121,0.035335 -0.08121,0.078872 0,0.043537 0.03638,0.078872 0.08121,0.078872 z"
       inkscape:connector-curvature="0"
       style="fill:#494949;fill-opacity:1;stroke-width:0.16006672" />
    <path
       id="path4538"
       d="M 4.5581389,6.5767484 H 3.9084447 c -0.04483,0 -0.08121,0.035335 -0.08121,0.078872 0,0.043537 0.03638,0.078872 0.08121,0.078872 h 0.6496942 c 0.04483,0 0.08121,-0.035335 0.08121,-0.078872 0,-0.043537 -0.03638,-0.078872 -0.08121,-0.078872 z"
       inkscape:connector-curvature="0"
       style="fill:#494949;fill-opacity:1;stroke-width:0.16006672" />
    <path
       id="path4540"
       d="M 7.1569187,4.6838211 H 6.5072238 c -0.04483,0 -0.08121,0.035335 -0.08121,0.078872 0,0.043537 0.03638,0.078872 0.08121,0.078872 h 0.6496949 c 0.04483,0 0.08121,-0.035335 0.08121,-0.078872 0,-0.043537 -0.03638,-0.078872 -0.08121,-0.078872 z"
       inkscape:connector-curvature="0"
       style="fill:#494949;fill-opacity:1;stroke-width:0.16006672" />
    <path
       id="path4542"
       d="M 7.1569187,5.6302846 H 6.5072238 c -0.04483,0 -0.08121,0.035335 -0.08121,0.078872 0,0.043537 0.03638,0.078872 0.08121,0.078872 h 0.6496949 c 0.04483,0 0.08121,-0.035335 0.08121,-0.078872 0,-0.043537 -0.03638,-0.078872 -0.08121,-0.078872 z"
       inkscape:connector-curvature="0"
       style="fill:#494949;fill-opacity:1;stroke-width:0.16006672" />
    <path
       id="path4544"
       d="M 7.1569187,6.5767484 H 6.5072238 c -0.04483,0 -0.08121,0.035335 -0.08121,0.078872 0,0.043537 0.03638,0.078872 0.08121,0.078872 h 0.6496949 c 0.04483,0 0.08121,-0.035335 0.08121,-0.078872 0,-0.043537 -0.03638,-0.078872 -0.08121,-0.078872 z"
       inkscape:connector-curvature="0"
       style="fill:#494949;fill-opacity:1;stroke-width:0.16006672" />
    <path
       id="path4546"
       d="m 1.3096648,3.8951014 h 0.649695 c 0.04483,0 0.08121,-0.035335 0.08121,-0.078872 0,-0.043537 -0.03638,-0.078872 -0.08121,-0.078872 h -0.649695 c -0.04483,0 -0.08121,0.035335 -0.08121,0.078872 0,0.043537 0.03638,0.078872 0.08121,0.078872 z"
       inkscape:connector-curvature="0"
       style="fill:#494949;fill-opacity:1;stroke-width:0.16006672" />
    <path
       id="path4548"
       d="m 3.9084447,3.8951014 h 0.6496942 c 0.04483,0 0.08121,-0.035335 0.08121,-0.078872 0,-0.043537 -0.03638,-0.078872 -0.08121,-0.078872 H 3.9084447 c -0.04483,0 -0.08121,0.035335 -0.08121,0.078872 0,0.043537 0.03638,0.078872 0.08121,0.078872 z"
       inkscape:connector-curvature="0"
       style="fill:#494949;fill-opacity:1;stroke-width:0.16006672" />
    <path
       id="path4550"
       d="M 7.1569187,3.7373573 H 6.5072238 c -0.04483,0 -0.08121,0.035335 -0.08121,0.078872 0,0.043537 0.03638,0.078872 0.08121,0.078872 h 0.6496949 c 0.04483,0 0.08121,-0.035335 0.08121,-0.078872 0,-0.043537 -0.03638,-0.078872 -0.08121,-0.078872 z"
       inkscape:connector-curvature="0"
       style="fill:#494949;fill-opacity:1;stroke-width:0.16006672" />
    <path
       inkscape:connector-curvature="0"
       id="path4526-9"
       d="m 0.33520276,0.7857109 c -0.04483,0 -0.081132,0.0355275 -0.081132,0.0790649 v 6.7370566 c 0,0.043537 0.036302,0.079065 0.081132,0.079065 H 8.1316257 c 0.04483,0 0.08113,-0.035528 0.08113,-0.079065 V 0.86477584 c 0,-0.0435373 -0.0363,-0.079065 -0.08113,-0.0790649 z m 0.081132,0.15812989 H 8.0504939 V 1.800636 H 0.41633486 Z m 0,1.02267651 H 8.0504939 V 7.5227675 H 0.41633486 Z"
       style="fill:#494949;fill-opacity:1;stroke-width:0.16006672" />
    <path
       id="path4546-5"
       d="m 1.3096648,2.4831549 h 0.649695 c 0.04483,0 0.08121,-0.035335 0.08121,-0.078872 0,-0.043537 -0.03638,-0.078872 -0.08121,-0.078872 h -0.649695 c -0.04483,0 -0.08121,0.035335 -0.08121,0.078872 0,0.043537 0.03638,0.078872 0.08121,0.078872 z"
       inkscape:connector-curvature="0"
       style="fill:#494949;fill-opacity:1;stroke-width:0.16006672" />
    <path
       id="path4548-3"
       d="m 3.9084448,2.4831549 h 0.6496941 c 0.04483,0 0.08121,-0.035335 0.08121,-0.078872 0,-0.043537 -0.03638,-0.078872 -0.08121,-0.078872 H 3.9084448 c -0.04483,0 -0.08121,0.035335 -0.08121,0.078872 0,0.043537 0.03638,0.078872 0.08121,0.078872 z"
       inkscape:connector-curvature="0"
       style="fill:#494949;fill-opacity:1;stroke-width:0.16006672" />
    <path
       id="path4550-6"
       d="m 7.1569188,2.3254108 h -0.649695 c -0.04483,0 -0.08121,0.035335 -0.08121,0.078872 0,0.043537 0.03638,0.078872 0.08121,0.078872 h 0.649695 c 0.04483,0 0.08121,-0.035335 0.08121,-0.078872 -1e-7,-0.043537 -0.03638,-0.078872 -0.08121,-0.078872 z"
       inkscape:connector-curvature="0"
       style="fill:#494949;fill-opacity:1;stroke-width:0.16006672" />
  </g>
</svg>
